# xmcd
#
# Track frame offsets: 
#        150
#        18167
#        37542
#        52365
#        75755
#        90490
#        105145
#        123487
#        140957
#        156510
#        173415
#        187542
#        205507
#        223612
#        242082
#        258012
#        272350
#        285470
#        297050
#
# Disc length: 4158 seconds
#
# Revision: 1
# Processed by: cddbd v1.5PL3 Copyright (c) Steve Scherf et al.
# Submitted via: ExactAudioCopy v0.95a5
#
DISCID=ea103c13
DTITLE=Rosanne Cash - La Legende Country
DYEAR=1998
DGENRE=Country
TTITLE0=Runaway Train
TTITLE1=The Wheel
TTITLE2=On The Inside
TTITLE3=Seventh Avenue
TTITLE4=I Don't Know Why You Don't Want Me
TTITLE5=Seven Year Ache
TTITLE6=Sleeping In Paris
TTITLE7=The Way We Make A Broken Heart
TTITLE8=What We Really Want
TTITLE9=Dance With The Tiger
TTITLE10=Tennessee Flat Top Box
TTITLE11=Real Woman
TTITLE12=Somewhere Sometime
TTITLE13=Our Little Angel
TTITLE14=707
TTITLE15=Pink Bedroom
TTITLE16=On The Surface
TTITLE17=I Don't Want To Spoil The Party
TTITLE18=It Hasn't Happened Yet
EXTD=(c)1998 Sony Music Entertainment (France) SA - VERSAILLES\nKatalo
EXTD=g: VER 4911732\nupc 5099749117327\nwww.sonymusic.fr\n\n
EXTT0=
EXTT1=
EXTT2=
EXTT3=
EXTT4=
EXTT5=
EXTT6=
EXTT7=
EXTT8=
EXTT9=
EXTT10=
EXTT11=
EXTT12=
EXTT13=
EXTT14=
EXTT15=
EXTT16=
EXTT17=
EXTT18=
PLAYORDER=
